<svg xmlns="http://www.w3.org/2000/svg" viewBox="0 0 240.64 112.61"><defs><style>.cls-1{fill:#1d1d1b;}</style></defs><g id="Livello_2" data-name="Livello 2"><g id="Livello_1-2" data-name="Livello 1"><path class="cls-1" d="M240.64,31.83a1.77,1.77,0,0,1-.39-1.35V24.57c0-1.3,0-4-5.32-4a9.33,9.33,0,0,0-4,.73,3.52,3.52,0,0,0-2,2.9l4.17-.11c.16-.75.44-1,1.45-1,1.28,0,1.5.51,1.52,1.24a14,14,0,0,1-2.38.46c-2,.26-3.18.42-4.2,1.43a3.12,3.12,0,0,0-.95,2.33c0,1.84,1.23,3.5,4,3.5A6,6,0,0,0,236.25,31v.84ZM236,26.77a2.79,2.79,0,0,1-.22,1.28,2.43,2.43,0,0,1-2,1.24c-.85,0-1.11-.55-1.11-.84,0-.12,0-.63.91-1,.39-.13.78-.21,1.15-.3s.89-.27,1.32-.42Zm-13.29,5.05h4.46V21h-4.46V31.82Zm0-11.92h4.46V17h-4.46V19.9Zm-6.27,11.93h4.45V25a4,4,0,0,0-1.06-3.17,4.51,4.51,0,0,0-3.11-1.09c-2.56,0-3.58,1.33-3.9,2A3.23,3.23,0,0,0,210.64,21a6,6,0,0,0-1.71-.26,3.66,3.66,0,0,0-3.55,1.83V21h-4.26V31.84h4.46V25.93a1.59,1.59,0,0,1,.43-1.21,1.72,1.72,0,0,1,1.21-.44,1.44,1.44,0,0,1,1.5,1.07,3.36,3.36,0,0,1,.06.63v5.86h4.46V26a1.52,1.52,0,0,1,1.65-1.76c1.53,0,1.56,1.17,1.56,1.86v5.69Zm-24.36-4.66h7.84c-.05-1.65-.07-3.46-1.71-5a6.52,6.52,0,0,0-4.5-1.61c-3.64,0-6.17,2.28-6.17,5.82,0,3,2,5.91,6.19,5.91a6.7,6.7,0,0,0,5.95-3L196,27.8a2.15,2.15,0,0,1-2,1.41,1.81,1.81,0,0,1-1.35-.51,2.05,2.05,0,0,1-.54-1.53Zm0-2.28a1.69,1.69,0,0,1,1.68-1.62,1.5,1.5,0,0,1,1.5,1.11,4.43,4.43,0,0,1,.06.51Zm-4.61,23.33c0,3,2,5.91,6.19,5.91a6.71,6.71,0,0,0,6-3L196,49.67a2.15,2.15,0,0,1-2,1.4,1.86,1.86,0,0,1-1.34-.5,2,2,0,0,1-.54-1.53h7.84c0-1.66-.07-3.46-1.71-5a6.55,6.55,0,0,0-4.51-1.62c-3.64,0-6.17,2.29-6.17,5.83Zm4.59-1.47a1.71,1.71,0,0,1,1.69-1.61,1.5,1.5,0,0,1,1.5,1.11,4.53,4.53,0,0,1,.06.5Zm-10.28,6.94h4.48V38.89h-4.48v14.8ZM182,31.83h4.33V17h-4.46v4.69A3.79,3.79,0,0,0,179,20.65c-2.45,0-4.9,1.7-4.9,5.49,0,3.42,1.85,6,5.05,6a4.91,4.91,0,0,0,1.69-.27A2.57,2.57,0,0,0,182,31v.8Zm0-5.48a3.07,3.07,0,0,1-.58,2.14,1.63,1.63,0,0,1-1.13.48,1.52,1.52,0,0,1-1.12-.46,2.87,2.87,0,0,1-.63-2.14,5.28,5.28,0,0,1,.13-1.27,1.64,1.64,0,0,1,1.6-1.37A1.66,1.66,0,0,1,181.79,25a4.17,4.17,0,0,1,.17,1.36Zm-13.13,5.48h4.39a1.77,1.77,0,0,1-.39-1.35V24.57c0-1.3,0-4-5.32-4a9.33,9.33,0,0,0-4,.73,3.55,3.55,0,0,0-2,2.9l4.18-.11c.16-.75.44-1,1.45-1,1.28,0,1.5.51,1.52,1.24a14,14,0,0,1-2.38.46c-2,.26-3.18.42-4.2,1.43a3.12,3.12,0,0,0-.95,2.33c0,1.84,1.23,3.5,4,3.5A6.06,6.06,0,0,0,168.83,31v.84Zm-.24-5.06a2.79,2.79,0,0,1-.22,1.28,2.43,2.43,0,0,1-2.05,1.24c-.85,0-1.11-.55-1.11-.84,0-.12,0-.63.91-1,.39-.13.78-.21,1.15-.3s.89-.27,1.32-.42ZM160.9,48c0-3.79-2.44-5.49-4.89-5.49a3.75,3.75,0,0,0-2.86,1.07v-4.7h-4.46v14.8H153V52.9a2.48,2.48,0,0,0,1.15.79,4.92,4.92,0,0,0,1.67.28c3.22,0,5.06-2.54,5.06-6Zm-4.39.23a2.91,2.91,0,0,1-.63,2.14,1.57,1.57,0,0,1-1.13.46,1.61,1.61,0,0,1-1.55-1.28,4.48,4.48,0,0,1-.16-1.34,3.12,3.12,0,0,1,.61-2.14,1.68,1.68,0,0,1,1.13-.48,1.64,1.64,0,0,1,1.6,1.36,5.42,5.42,0,0,1,.13,1.28Zm-3.16-21.8c0-1.64.67-2.94,2-2.94a1.93,1.93,0,0,1,1.89,1.66l3.4-1.87a5.17,5.17,0,0,0-.89-1.13,6.38,6.38,0,0,0-4.61-1.7,6.54,6.54,0,0,0-4.63,1.66,5.82,5.82,0,0,0-1.61,4.19,5.6,5.6,0,0,0,6,5.93,6.39,6.39,0,0,0,4.68-1.74,4.78,4.78,0,0,0,1.08-1.59l-3.4-1.8c-.2.56-.63,1.82-2,1.82-1.76,0-1.93-1.63-1.93-2.49Zm-.22,34.36h-4.45l0,3.4h-1.55v2.33h1.52l-.06,5.23A2.89,2.89,0,0,0,149.3,74a4.36,4.36,0,0,0,2.93.9,21.11,21.11,0,0,0,2.79-.23V71.71a4.35,4.35,0,0,1-.79.09c-1.19,0-1.21-.71-1.21-1.13l0-4.14H155V64.2h-1.91l0-3.4Zm-11.9-34.36c0-1.64.67-2.94,2-2.94a1.93,1.93,0,0,1,1.89,1.66l3.4-1.87a5.17,5.17,0,0,0-.89-1.13,6.38,6.38,0,0,0-4.61-1.7,6.53,6.53,0,0,0-4.63,1.66,5.82,5.82,0,0,0-1.61,4.19,5.6,5.6,0,0,0,6,5.93,6.39,6.39,0,0,0,4.68-1.74,4.78,4.78,0,0,0,1.08-1.59l-3.4-1.8c-.2.56-.63,1.82-2,1.82-1.76,0-1.93-1.63-1.93-2.49Zm4.28,37.28a4.66,4.66,0,0,0-3.72,1.17v-1h-4.26V74.73h4.41V69.65c0-.7.07-2.35,2.67-2.35.3,0,.6,0,.9,0V63.72Zm-3.23-20.89h-4.46V53.69h4.46V42.83Zm0-3.94h-4.46v2.87h4.46V38.89Zm1.23,48.82a15.14,15.14,0,0,1-2.38.46c-2,.25-3.18.42-4.2,1.42a3.14,3.14,0,0,0-1,2.33c0,1.84,1.23,3.5,4.05,3.5a6,6,0,0,0,3.7-1.09v.84h4.39a1.76,1.76,0,0,1-.39-1.34V87.92c0-1.3,0-4-5.32-4a9.38,9.38,0,0,0-4,.74,3.5,3.5,0,0,0-2,2.89l4.17-.1c.16-.76.44-1,1.45-1,1.28,0,1.5.5,1.52,1.24Zm0,2.41a2.81,2.81,0,0,1-.22,1.28,2.44,2.44,0,0,1-2.06,1.23c-.84,0-1.1-.54-1.1-.84,0-.12,0-.63.91-1a10.76,10.76,0,0,1,1.15-.29c.45-.13.89-.28,1.32-.42ZM131.67,53.69H136V38.89h-4.46v4.7a3.79,3.79,0,0,0-2.86-1.07c-2.45,0-4.89,1.7-4.89,5.49,0,3.42,1.84,6,5,6a4.91,4.91,0,0,0,1.69-.28,2.48,2.48,0,0,0,1.15-.79v.79Zm0-5.47a3,3,0,0,1-.59,2.14,1.66,1.66,0,0,1-1.12.48,1.57,1.57,0,0,1-1.13-.46,2.91,2.91,0,0,1-.63-2.14,6,6,0,0,1,.13-1.28,1.61,1.61,0,0,1,3.16-.1,4.17,4.17,0,0,1,.18,1.36Zm-.09-16.39H136a1.77,1.77,0,0,1-.39-1.35V24.57c0-1.3,0-4-5.33-4a9.34,9.34,0,0,0-4,.73,3.55,3.55,0,0,0-2,2.9l4.18-.11c.15-.75.44-1,1.45-1,1.28,0,1.5.51,1.52,1.24a14,14,0,0,1-2.38.46c-2,.26-3.18.42-4.2,1.43a3.12,3.12,0,0,0-1,2.33c0,1.84,1.23,3.5,4,3.5A6.06,6.06,0,0,0,131.56,31v.84Zm-.24-5.06a2.79,2.79,0,0,1-.22,1.28A2.43,2.43,0,0,1,129,29.29c-.84,0-1.1-.55-1.1-.84,0-.12,0-.63.91-1,.39-.13.78-.21,1.15-.3s.88-.27,1.32-.42ZM112.61,56.31,91.82,41.6l4.3-25.11L71,20.8,56.31,0,41.6,20.8,16.49,16.49,20.8,41.6,0,56.31,20.8,71,16.49,96.12,41.6,91.81l14.71,20.8L71,91.81l25.11,4.31L91.82,71l20.79-14.7ZM29.9,86,50,79.62l-7.84,8.61L29.9,86Zm-2.26-58.4L53,37.43,37.43,53,27.64,27.64ZM33,50l-8.6-7.84,2.18-12.29L33,50Zm0,12.57L26.57,82.72,24.39,70.43,33,62.59ZM54.47,40.35V54.47H40.35L54.47,40.35Zm0,17.79V72.27L40.35,58.14Zm-1.5,17-25.6,10L37.43,59.65,53,75.19ZM21,91.63l1.82-14L24.62,88,35,89.81,21,91.63ZM8,57.38l24.66.76L22.8,68.35,8,57.38ZM22.8,44.26l9.89,10.21L8,55.23l14.77-11ZM35,22.8,24.62,24.63,22.8,35,21,21,35,22.8Zm7.18,1.59L50,33,29.9,26.58l12.28-2.19ZM55.23,8l-.76,24.66L44.26,22.8,55.23,8Zm0,96.55-11-14.77,10.21-9.88.76,24.65ZM89.81,68.35,79.92,58.14l24.66-.76-14.77,11ZM58.14,72.27V58.14H72.26L58.14,72.27Zm17-12.62,10,25.59-25.59-10L75.19,59.65Zm-17-5.18V40.35L72.26,54.47Zm1.51-17L85,27.64,75.19,53,59.65,37.43ZM86,29.89l2.18,12.29L79.62,50,86,29.89Zm-6.42,32.7,8.6,7.84L86,82.72,79.62,62.59Zm-2,27.22L88,88l1.82-10.38,1.82,14-14-1.82Zm-7.18-1.58-7.84-8.61L82.72,86,70.43,88.23ZM57.38,104.58l.76-24.65,10.21,9.88-11,14.77Zm11-81.78L58.14,32.69,57.38,8l11,14.77Zm14.37,3.78L62.59,33l7.84-8.6,12.29,2.19ZM91.63,21,89.81,35,88,24.63,77.61,22.8l14-1.82Zm13,34.25-24.67-.76,9.89-10.21,14.78,11Zm20.8,30.23a5.86,5.86,0,0,0-1.6,4.2,5.59,5.59,0,0,0,6,5.93,6.39,6.39,0,0,0,4.68-1.74,4.92,4.92,0,0,0,1.08-1.6l-3.4-1.8c-.19.57-.62,1.83-2,1.83-1.75,0-1.93-1.64-1.93-2.5,0-1.63.68-2.93,2-2.93a1.92,1.92,0,0,1,1.88,1.65l3.4-1.86a4.89,4.89,0,0,0-.89-1.13,6.38,6.38,0,0,0-4.61-1.7,6.54,6.54,0,0,0-4.63,1.65Zm6-18.19a15.14,15.14,0,0,1-2.38.46c-2,.25-3.18.42-4.2,1.43a3.1,3.1,0,0,0-1,2.32c0,1.85,1.23,3.5,4,3.5a6,6,0,0,0,3.71-1.09v.84H136a1.76,1.76,0,0,1-.39-1.34V67.48c0-1.3,0-4-5.33-4a9.34,9.34,0,0,0-4,.73,3.55,3.55,0,0,0-2,2.89l4.18-.1c.15-.76.44-1,1.45-1,1.28,0,1.5.5,1.52,1.24Zm0,2.41A2.79,2.79,0,0,1,131.1,71,2.44,2.44,0,0,1,129,72.19c-.84,0-1.1-.54-1.1-.83,0-.13,0-.63.91-1A10.76,10.76,0,0,1,130,70.1c.45-.13.88-.27,1.32-.42ZM150.2,84.56h-1.56v2.35h1.54l-.07,5.26a2.93,2.93,0,0,0,.76,2.25,4.48,4.48,0,0,0,2.95.9,23.28,23.28,0,0,0,2.81-.23v-3a5.42,5.42,0,0,1-.8.08c-1.19,0-1.21-.71-1.21-1.13l0-4.17h2V84.56h-1.93l0-3.42h-4.48l0,3.42ZM161.46,60H157v2.86h4.43V60Zm0,3.92H157V74.73h4.43V64Zm-3.34,25.64a3.14,3.14,0,0,0-1,2.33c0,1.84,1.24,3.5,4.05,3.5a5.93,5.93,0,0,0,3.7-1.09v.84h4.4a1.72,1.72,0,0,1-.39-1.34V87.92c0-1.3,0-4-5.33-4a9.31,9.31,0,0,0-4,.74,3.5,3.5,0,0,0-2,2.89l4.18-.1c.15-.76.43-1,1.45-1,1.28,0,1.49.5,1.52,1.24a15.38,15.38,0,0,1-2.38.46c-2,.25-3.19.42-4.21,1.42Zm3.19,2.2c0-.12,0-.63.91-1a10.6,10.6,0,0,1,1.14-.29c.46-.13.89-.28,1.32-.42a2.93,2.93,0,0,1-.21,1.28,2.44,2.44,0,0,1-2.06,1.23c-.84,0-1.1-.54-1.1-.84ZM167,50.57a2,2,0,0,1-.54-1.53h7.84c-.05-1.66-.07-3.46-1.71-5a6.55,6.55,0,0,0-4.51-1.62c-3.64,0-6.17,2.29-6.17,5.83,0,3,2,5.91,6.19,5.91a6.71,6.71,0,0,0,6-3l-3.68-1.49a2.15,2.15,0,0,1-2,1.4,1.86,1.86,0,0,1-1.34-.5Zm-.5-3.82a1.71,1.71,0,0,1,1.69-1.61,1.49,1.49,0,0,1,1.49,1.11,3,3,0,0,1,.07.5Zm9,6.94H180V38.89h-4.48v14.8ZM175,84.31h-4.23V95.17h4.46V89.38c0-.58,0-1.78,1.63-1.78s1.52,1.09,1.52,1.64v5.93h4.45V88.31a4.34,4.34,0,0,0-1.12-3.26,4.25,4.25,0,0,0-3-1A4,4,0,0,0,175,85.76V84.31Zm14.24-3.94h-4.46v2.87h4.46V80.37Zm0,3.94h-4.46V95.17h4.46V84.31Zm2.32,5.28a3.14,3.14,0,0,0-.95,2.33c0,1.84,1.23,3.5,4,3.5a6,6,0,0,0,3.71-1.09v.84h4.39a1.76,1.76,0,0,1-.39-1.34V87.92c0-1.3,0-4-5.32-4a9.35,9.35,0,0,0-4,.74,3.5,3.5,0,0,0-2,2.89l4.17-.1c.16-.76.44-1,1.45-1,1.28,0,1.5.5,1.52,1.24a15.14,15.14,0,0,1-2.38.46c-2,.25-3.18.42-4.2,1.42Zm3.18,2.2c0-.12,0-.63.91-1a10.76,10.76,0,0,1,1.15-.29c.45-.13.89-.28,1.32-.42a2.81,2.81,0,0,1-.22,1.28,2.44,2.44,0,0,1-2,1.23c-.85,0-1.11-.54-1.11-.84Z"/></g></g></svg>